<svg width="200" height="200" viewBox="-100 -100 200 200" xmlns="http://www.w3.org/2000/svg">
  
  <path d="M0,-40 A40,40 0 1,1 0,40 A40,40 0 1,1 0,-40 M0,-48 A48,48 0 1,0 0,48 A48,48 0 1,0 0,-48" fill="#FFD54F" />

  <g fill="#FFC107">
    
    <rect x="-3" y="-90" width="6" height="40" />
    <rect x="-3" y="50" width="6" height="40" />
    <rect x="-90" y="-3" width="40" height="6" />
    <rect x="50" y="-3" width="40" height="6" />

    <g transform="rotate(45)">
      <rect x="-3" y="-90" width="6" height="40" />
      <rect x="-3" y="50" width="6" height="40" />
    </g>
    <g transform="rotate(-45)">
      <rect x="-3" y="-90" width="6" height="40" />
      <rect x="-3" y="50" width="6" height="40" />
    </g>
    
  </g>
</svg>